<?xml version="1.0" encoding="UTF-8" standalone="no"?>
<!-- Created with Inkscape (http://www.inkscape.org/) -->

<svg
   xmlns:dc="http://purl.org/dc/elements/1.1/"
   xmlns:cc="http://creativecommons.org/ns#"
   xmlns:rdf="http://www.w3.org/1999/02/22-rdf-syntax-ns#"
   xmlns:svg="http://www.w3.org/2000/svg"
   xmlns="http://www.w3.org/2000/svg"
   xmlns:sodipodi="http://sodipodi.sourceforge.net/DTD/sodipodi-0.dtd"
   xmlns:inkscape="http://www.inkscape.org/namespaces/inkscape"
   id="svg3004"
   version="1.1"
   inkscape:version="0.48.2 r9819"
   width="27.33"
   height="37.869999"
   xml:space="preserve"
   sodipodi:docname="red.svg"><metadata
     id="metadata3010"><rdf:RDF><cc:Work
         rdf:about=""><dc:format>image/svg+xml</dc:format><dc:type
           rdf:resource="http://purl.org/dc/dcmitype/StillImage" /><dc:title /></cc:Work></rdf:RDF></metadata><defs
     id="defs3008"><linearGradient
       x1="0"
       y1="0"
       x2="1"
       y2="0"
       gradientUnits="userSpaceOnUse"
       gradientTransform="matrix(23.389074,-40.511066,-40.511066,-23.389074,3.9643555,40.550293)"
       spreadMethod="pad"
       id="linearGradient3026"><stop
         style="stop-color:#e23422;stop-opacity:1;"
         offset="0"
         id="stop3028" /><stop
         id="stop3840"
         offset="1"
         style="stop-color:#c22a1a;stop-opacity:1;" /></linearGradient><clipPath
       clipPathUnits="userSpaceOnUse"
       id="clipPath3038"><path
         d="m 0,37.907 26.359,0 L 26.359,0 0,0 0,37.907 z"
         id="path3040"
         inkscape:connector-curvature="0" /></clipPath><clipPath
       clipPathUnits="userSpaceOnUse"
       id="clipPath3050"><path
         d="m 0,37.907 26.359,0 L 26.359,0 0,0 0,37.907 z"
         id="path3052"
         inkscape:connector-curvature="0" /></clipPath></defs><sodipodi:namedview
     pagecolor="#ffffff"
     bordercolor="#666666"
     borderopacity="1"
     objecttolerance="10"
     gridtolerance="10"
     guidetolerance="10"
     inkscape:pageopacity="0"
     inkscape:pageshadow="2"
     inkscape:window-width="836"
     inkscape:window-height="859"
     id="namedview3006"
     showgrid="false"
     fit-margin-top="0"
     fit-margin-left="0"
     fit-margin-right="0"
     fit-margin-bottom="0"
     inkscape:zoom="10.383389"
     inkscape:cx="11.026327"
     inkscape:cy="9.2754255"
     inkscape:window-x="195"
     inkscape:window-y="82"
     inkscape:window-maximized="0"
     inkscape:current-layer="g3012" /><g
     id="g3012"
     inkscape:groupmode="layer"
     inkscape:label="green"
     transform="matrix(1.25,0,0,-1.25,0,38.091924)"><g
       id="g3014"
       transform="matrix(0.79926554,0,0,0.79926554,0,0.12001996)"
       style="stroke:none"><g
         id="g3016"
         style="stroke:none"><g
           id="g3022"
           style="stroke:none"><g
             id="g3024"
             style="stroke:none"><path
               d="m 0.5,24.589 c 0,-4.666 2.466,-8.751 6.154,-10.993 l 0,0 c 0,0 1.769,-0.349 6.417,-12.223 l 0,0 c 4.64,11.874 6.684,12.255 6.684,12.255 l 0,0 c 3.659,2.248 6.104,6.316 6.104,10.961 l 0,0 c 0,7.079 -5.677,12.818 -12.679,12.818 l 0,0 C 6.177,37.407 0.5,31.668 0.5,24.589"
               style="fill:url(#linearGradient3026);stroke:none"
               id="path3032"
               inkscape:connector-curvature="0" /></g></g></g></g><g
       id="g3034"
       transform="matrix(0.79926554,0,0,0.79926554,0,0.12001996)"
       style="stroke:#881d12;stroke-opacity:1"><g
         id="g3036"
         clip-path="url(#clipPath3038)"
         style="stroke:#881d12;stroke-opacity:1"><g
           id="g3042"
           transform="translate(6.6538,13.5967)"
           style="stroke:#881d12;stroke-opacity:1"><path
             d="m 0,0 c -3.688,2.241 -6.154,6.326 -6.154,10.992 0,7.079 5.677,12.818 12.679,12.818 7.003,0 12.68,-5.739 12.68,-12.818 0,-4.644 -2.444,-8.713 -6.103,-10.961 0,0 -2.044,-0.381 -6.685,-12.255 C 1.77,-0.35 0,0 0,0 z"
             style="fill:none;stroke:#881d12;stroke-width:1;stroke-linecap:butt;stroke-linejoin:miter;stroke-miterlimit:10;stroke-opacity:1;stroke-dasharray:none"
             id="path3044"
             inkscape:connector-curvature="0" /></g></g></g><g
       id="g3046"
       transform="matrix(0.93813631,0,0,0.93813631,-1.8121329,-3.0396151)"><g
         id="g3048"
         clip-path="url(#clipPath3050)"><g
           id="g3054"
           transform="translate(17.7417,24.7681)"><path
             d="m 0,0 0,-0.78 -0.6,0 c -0.24,-0.97 -0.96,-0.91 -0.96,-0.91 l 0,2.59 c 0,0 0.72,0.06 0.96,-0.9 L 0,0 z"
             style="fill:#eeeeee;fill-opacity:1;fill-rule:nonzero;stroke:none"
             id="path3056"
             inkscape:connector-curvature="0" /></g><g
           id="g3058"
           transform="translate(15.1021,27.8379)"><path
             d="m 0,0 -4.101,0 c 0,2.41 1.691,2.59 1.691,2.59 l 0,0.84 0.72,0 0,-0.84 C -1.69,2.59 0,2.41 0,0"
             style="fill:#eeeeee;fill-opacity:1;fill-rule:nonzero;stroke:none"
             id="path3060"
             inkscape:connector-curvature="0" /></g><g
           id="g3062"
           transform="translate(15.6421,25.668)"><path
             d="m 0,0 0,-2.59 -0.54,0 0,-6.431 -4.101,0 0,6.431 -0.54,0 0,2.59 0.54,0 0,1.45 4.101,0 L -0.54,0 0,0 z"
             style="fill:#eeeeee;fill-opacity:1;fill-rule:nonzero;stroke:none"
             id="path3064"
             inkscape:connector-curvature="0" /></g><g
           id="g3066"
           transform="translate(9.9214,25.668)"><path
             d="m 0,0 0,-2.59 c 0,0 -0.72,-0.06 -0.96,0.91 l -0.6,0 0,0.78 0.6,0 C -0.72,0.06 0,0 0,0"
             style="fill:#eeeeee;fill-opacity:1;fill-rule:nonzero;stroke:none"
             id="path3068"
             inkscape:connector-curvature="0" /></g></g></g></g></svg>